<?xml version="1.0" encoding="UTF-8"?>
<svg width="28px" height="28px" viewBox="0 0 28 28" version="1.1" xmlns="http://www.w3.org/2000/svg" xmlns:xlink="http://www.w3.org/1999/xlink">
    <title>资产管理-资产管理</title>
    <g id="资产管理-资产管理" stroke="none" stroke-width="1" fill="none" fill-rule="evenodd">
        <rect fill="#FFFFFF" opacity="0" x="0" y="0" width="28" height="28"></rect>
        <g id="资产管理1" fill="#FFFFFF" fill-rule="nonzero">
            <path d="M13.1522534,12.8059614 L0.413701297,7.14650319 C0.16183704,7.01674617 0.00259804298,6.75050522 0.00259804298,6.45915575 C0.00259804298,6.16780627 0.16183704,5.90156533 0.413701297,5.7718083 L13.1867285,0.148056426 C13.5663547,-0.049363383 14.0137311,-0.049363383 14.3933573,0.148056426 L27.149147,5.50401059 C27.4010112,5.63376761 27.5602502,5.90000856 27.5602502,6.19135804 C27.5602502,6.48270753 27.4010112,6.74894848 27.149147,6.8787055 L14.4278324,12.8059614 C14.0238296,13.0025826 13.5562562,13.0025826 13.1522534,12.8059614 Z M27.4421854,21.3219286 C27.4421854,20.8585067 27.0794621,20.4828291 26.6320204,20.4828291 C26.5350288,20.465849 26.4359735,20.465849 26.3389819,20.4828291 L14.0313687,26.1601405 C13.883329,26.2288802 13.7139943,26.2288802 13.5659547,26.1601405 L1.25834141,20.8041863 L0.9997781,20.8041863 C0.609833826,20.8086136 0.278263293,21.1001371 0.210733413,21.4979303 C0.143203533,21.8957235 0.358877668,22.2869022 0.723977244,22.4288258 L12.9281652,27.7847799 C13.2136554,27.9252758 13.5256772,27.9984454 13.8417556,27.9990181 C14.1348476,28.0090347 14.4255614,27.9414416 14.6863957,27.8026331 L26.9078212,22.2324408 C27.2686157,22.0944561 27.4900351,21.7171759 27.4421854,21.3219286 L27.4421854,21.3219286 Z" id="形状"></path>
            <path d="M27.5800858,13.7343268 C27.5847217,13.5087068 27.5014163,13.2906632 27.3489755,13.1294188 C27.1965347,12.9681745 26.9878101,12.8773724 26.7699208,12.8773724 C26.6365078,12.8770819 26.5054918,12.9140897 26.3906946,12.9844932 L13.9279433,18.7510705 C13.784451,18.8125675 13.6232592,18.8125675 13.4797669,18.7510705 L1.22386632,13.0023464 L1.120441,13.0023464 C1.04606321,12.9922463 0.970730563,12.9922463 0.896352776,13.0023464 C0.527673421,13.0021696 0.205370475,13.2598265 0.11214273,13.6292632 C0.0189149849,13.9986999 0.178275072,14.386742 0.49988905,14.5734263 L12.8419774,20.3578568 C13.1274676,20.4983527 13.4394894,20.5715222 13.7555678,20.572095 C14.0530376,20.5705049 14.3467971,20.5035697 14.6174455,20.37571 L27.1663845,14.5734263 C27.4536864,14.4043761 27.6163291,14.074492 27.5800858,13.7343268 L27.5800858,13.7343268 Z" id="路径"></path>
        </g>
    </g>
</svg>